PathFileType	4	(X/Y/Z)	38_1_16_p1_0-242_filt_butterworth.trc
DataRate	CameraRate	NumFrames	NumMarkers	Units	OrigDataRate	OrigDataStartFrame	OrigNumFrames
60.0	60.0	5	27	m	60.0	60	242
Frame#	Time	RHip			RKnee			RAnkle			RBigToe			RSmallToe			RHeel			LHip			LKnee			LAnkle			LBigToe			LSmallToe			LHeel			Neck			Head			Nose			RShoulder			RElbow			RWrist			RThumb			RIndex			RPinky			LShoulder			LElbow			LWrist			LThumb			LIndex			LPinky			
		X1	Y1	Z1	X2	Y2	Z2	X3	Y3	Z3	X4	Y4	Z4	X5	Y5	Z5	X6	Y6	Z6	X7	Y7	Z7	X8	Y8	Z8	X9	Y9	Z9	X10	Y10	Z10	X11	Y11	Z11	X12	Y12	Z12	X13	Y13	Z13	X14	Y14	Z14	X15	Y15	Z15	X16	Y16	Z16	X17	Y17	Z17	X18	Y18	Z18	X19	Y19	Z19	X20	Y20	Z20	X21	Y21	Z21	X22	Y22	Z22	X23	Y23	Z23	X24	Y24	Z24	X25	Y25	Z25	X26	Y26	Z26	X27	Y27	Z27	
60	1.0	0.3803642941882205	0.757875061336291	0.5214642566574297	0.37347650568935326	0.9010875418831212	0.93825951397096	0.36954699555165343	1.0522263082761987	1.363822031867649	0.305049349954633	0.8266116851038543	1.4156766394507019	0.3800405679547033	0.8464055976698207	1.422559382936782	0.3524769223113252	1.1590453314179876	1.4062314219803786	0.16636492671849884	0.7868275114437389	0.5247481542492497	0.16981297674100293	0.9213647611704032	0.9401509516932565	0.16317615000139452	1.0607589541130373	1.335074905697497	0.16295013877058612	0.8695406272037409	1.4076378720002325	0.11123878642455884	0.9195765928960244	1.403558188752826	0.18949661897422193	1.1309980469523133	1.3914469527823385	0.23927261192519583	0.5449887337795679	0.045371613652974506	0.22454459992521278	0.40300332800457683	-0.17497187102714157	0.21763644145957386	0.3977196519369716	-0.03446676015224422	0.39602893637782755	0.5615639675071721	0.11163375876156945	0.41281906643982497	0.6295483409708136	0.38059514777120923	0.31275253812584397	0.6616216471603489	0.590928714175164	0.229922695898654	0.6778836305477168	0.6596263644715946	0.22776160879012639	0.6917104110842847	0.6718087633896134	0.2664485361601803	0.6969331661733458	0.683140724451002	0.09268003012023743	0.6020982164352617	0.11097935141318513	0.09886969824162173	0.6610073017048945	0.36844112580959276	0.20972966978231256	0.6859909224248222	0.5675041596100371	0.25492023081060716	0.6358589845545087	0.6349018703766369	0.25780559600357017	0.6442684319368754	0.6642824620221882	0.2507242538692128	0.6773556359159525	0.661598066840066
61	1.0166666666666666	0.3821135888953448	0.7625136813495182	0.5217186795749403	0.3734715610920717	0.9009898383806287	0.9382302084753138	0.36955726178184634	1.0521727936189744	1.3638030327083572	0.3047418004110065	0.8265149170112175	1.415330718463307	0.3798642683174479	0.8461559915046725	1.4225649789694936	0.3524650280746688	1.1590895334681877	1.4063853499837857	0.16671281765413284	0.786853631948042	0.5254067304877372	0.17212575592814802	0.9230808527180188	0.9405255494212011	0.1631656421245671	1.0608479912915243	1.3351074059934445	0.1629869706313927	0.869596327644287	1.4081075349689618	0.11148302183238329	0.9192711015461666	1.4026486933137934	0.1880772133451455	1.1294151586668397	1.3894098787112994	0.23646901550149646	0.5434938789421047	0.047762027350746895	0.22111035667713896	0.4005568249022943	-0.17236463958351408	0.21670164316292795	0.394179768500823	-0.030431574239235346	0.3959836374314861	0.5606793767149816	0.1116074097343411	0.41190041327834637	0.6300612736634587	0.3828417209120409	0.3128574964707873	0.6617372159720922	0.5914253322216483	0.23016246791776707	0.67869800858231	0.6612426344231268	0.22997593088258472	0.6911951948427939	0.673355064238413	0.2697100538371121	0.6998483061557353	0.6828938283241105	0.09219118751770906	0.6025233439570795	0.11338120886515815	0.0988016861741636	0.6612048295281042	0.3691425596643731	0.209706544997482	0.6860120210836683	0.5668045970202358	0.25605523894733045	0.6354652385950522	0.6329186615341476	0.2584260811003266	0.6443531422531242	0.6642513369544855	0.2517993698586892	0.6813282800645749	0.6617232654430394
62	1.0333333333333334	0.3832104394208162	0.7665924598064496	0.5230232810202267	0.3734746949906728	0.9009019204846626	0.9381842361432329	0.3695694507810358	1.0520486863119287	1.3637832703509094	0.3047404916705901	0.8267089538231892	1.4155506671897347	0.3798410305164167	0.8459909785311002	1.4225648465592637	0.35245298967259564	1.1590560418955598	1.4064330714662006	0.16708668629185675	0.7886472861499445	0.5277083698752127	0.17446741462103849	0.9273778913016921	0.941627641097776	0.16315875625251883	1.0608927772783066	1.335171148882091	0.16290142811636346	0.8693147859536965	1.4080977962629881	0.11159200127099982	0.9191405642250989	1.4022968293989586	0.18698151945963265	1.1288161471983764	1.388680468819834	0.23360575040851914	0.5378240141899043	0.05074750003204359	0.2190022924630419	0.3998472598796622	-0.16929207751747638	0.21458929885416253	0.3914840043572887	-0.026114035586049307	0.3961988715264178	0.5606122538690788	0.11160348426352601	0.41171241310718987	0.6306570244034715	0.3850425083486706	0.31278470077483467	0.6617054153436934	0.5915876036199393	0.23035513317973325	0.6790527529812959	0.6629317149771224	0.23145209770457148	0.690948423014189	0.6754254592165267	0.27278140793616745	0.7041520119093045	0.6825702572278779	0.09111459621438735	0.602665714929919	0.11547210176736422	0.09912258080966119	0.6610874646488336	0.36903262900734657	0.20943478482945294	0.6849107409718119	0.5647869675367118	0.25666120419318783	0.635702341083671	0.631899755811691	0.2596365645934292	0.64456198931261	0.6644469703584038	0.25245807795038466	0.6845044758988738	0.6616592322129232
63	1.05	0.3834465466412591	0.7688349527753415	0.5248329510030663	0.37353569225860317	0.9010084814427082	0.9381888032715062	0.3695844613649918	1.0519255673623769	1.3637671199231782	0.30486887375857646	0.8269556091267533	1.4158075875002472	0.3799312424638308	0.8459639727919201	1.4225602408994353	0.3524506741091606	1.159021004402162	1.406428705531244	0.16840844362830348	0.7929115489329277	0.5299395176925151	0.17633935376870868	0.9329723338486005	0.9430761028750888	0.16315243631748774	1.0608913898741918	1.3352341628432793	0.16284499130547464	0.8691764155726514	1.407981554500215	0.1116079899560084	0.9191133178914517	1.4023025794126867	0.18650405856212288	1.128812316322233	1.3887632855509744	0.23148494973364905	0.5299774176481793	0.054198354170520754	0.21757929166082718	0.39995503360462586	-0.16593597582621852	0.21215057163804804	0.3891114558758755	-0.022114029466139506	0.39652023491153743	0.5594918161610827	0.11176285338690595	0.4123873065561283	0.6320423924751893	0.3863057378147595	0.31275180444850115	0.6615209739056769	0.5915293107744305	0.2303842673911259	0.6788908592401943	0.6639398777469653	0.23133893551352214	0.6908606990554174	0.6770048637486965	0.27473961740336905	0.707880135742712	0.6822639000399926	0.08976417064153125	0.6016946197646016	0.11691170980030519	0.10017231156174175	0.6609364008150839	0.36894208680050744	0.20916762821072024	0.6833043091600051	0.561764466818401	0.2572078963429752	0.6371800328091755	0.6317676916248912	0.2611172980606048	0.6449751912405306	0.6646826670632754	0.2526905582771812	0.6856685830312448	0.6610455431885995
64	1.0666666666666669	0.3832708900168761	0.7697007513080456	0.5261910958915658	0.37368035765395335	0.9013263174215279	0.9384796082811813	0.3695985613195632	1.051856964032691	1.363752485404227	0.3050104801156751	0.8270698969911854	1.4159058425570312	0.3800483805998414	0.8460361674285339	1.4225562929522306	0.3524555134852599	1.1590213232222575	1.4064095548781426	0.17084397196037562	0.7984123365841957	0.5310733263639961	0.1774102280546581	0.9372008885134631	0.9441000993392525	0.1631440966545607	1.060855738020406	1.3352774206376363	0.16283348161259614	0.8691818411087975	1.4079120362188973	0.11159471970027691	0.9190935013843908	1.4023829029509054	0.18641883715451252	1.1289215177035994	1.3890433750660067	0.23053389629674734	0.5240995756642889	0.05706541306557799	0.21595415267596255	0.39919620274685114	-0.1631290862460005	0.21051179322647876	0.3870972216381101	-0.01904857759988058	0.3970310626220412	0.5562083505028766	0.11215451017956755	0.413951548415416	0.6349850336060969	0.3865752558856641	0.31283410529016914	0.6612232873807664	0.5913961358372937	0.23022810260257187	0.6784455637709714	0.663333415464173	0.23034719410848753	0.6917681496635246	0.6771896760777886	0.275402717161243	0.7096610474780171	0.6821034566947268	0.08869980757955258	0.5990420888800845	0.11799283278761077	0.10170293003039867	0.6609287316179228	0.3693832118864559	0.2089337688369341	0.6816940330258678	0.5587368746398219	0.2581126840122064	0.6399793375807847	0.6320140895400564	0.2622074779655772	0.6462120324020219	0.6650290872778235	0.2526334622941763	0.685160410824675	0.6603033726020419
